<svg width="150" height="30" viewBox="0 0 150 30" fill="none" xmlns="http://www.w3.org/2000/svg">
  <path d="M9.84 23V7H12.56L18.4 17.08H16.56L22.36 7H25.04L25.08 23H22.04L22 12.08H22.76L18.04 20.16H16.84L12.12 12.08H12.92L12.88 23H9.84Z" fill="black"/>
  <path d="M28.7903 23V7H31.7503L31.7903 17.48H31.3903L39.2303 7H42.8703L35.6703 16.24L43.3903 23H39.6303L31.7903 15.64H31.7503V23H28.7903Z" fill="black"/>
  <path d="M44.8644 23V7H56.9844V9.68H47.8244V13.6H55.8244V16.28H47.8244V20.32H57.1044V23H44.8644Z" fill="black"/>
  <path d="M58.9717 23V7H71.0917V9.68H61.9317V13.6H69.9317V16.28H61.9317V20.32H71.2117V23H58.9717Z" fill="black"/>
  <path d="M74.2589 23V7H77.2189L85.2589 18.64H84.1789V7H87.1389V23H84.1789L76.1389 11.36H77.2189V23H74.2589Z" fill="black"/>
  <path d="M91.3861 23V7H94.3461L102.386 18.64H101.306V7H104.266V23H101.306L93.2661 11.36H94.3461V23H91.3861Z" fill="black"/>
  <path d="M106.553 23V7H118.673V9.68H109.513V13.6H117.513V16.28H109.513V20.32H118.793V23H106.553Z" fill="black"/>
  <path d="M121.06 23V7H124.02V20.32H132.5V23H121.06Z" fill="black"/>
  <path d="M134.147 23V7H137.107V13.24H144.827V7H147.787V23H144.827V15.92H137.107V23H134.147Z" fill="black"/>
</svg> 